<?xml version="1.0" encoding="utf-8"?>
<svg id="master-artboard" viewBox="0 0 794.7880249023438 122.49125671386719" version="1.1" xmlns="http://www.w3.org/2000/svg" x="0px" y="0px" style="enable-background:new 0 0 1400 980;" width="794.7880249023438px" height="122.49125671386719px" xmlns:xlink="http://www.w3.org/1999/xlink"><rect id="ee-background" x="0" y="0" width="794.7880249023438" height="122.49125671386719" style="fill: white; fill-opacity: 0; pointer-events: none;"/><g transform="matrix(1.2760417461395264, 0, 0, 1.2760417461395264, -255.18852615356445, -429.5052779887675)"><metadata id="metadata205079">
    
  </metadata><linearGradient spreadMethod="pad" y2="30%" x2="-10%" y1="120%" x1="30%" id="3d_gradient2-logo-e40e42e0-dc8d-425b-95fb-59acee3e95f1">
    <stop id="stop205054" stop-opacity="1" stop-color="#ffffff" offset="0%"/>
    <stop id="stop205056" stop-opacity="1" stop-color="#000000" offset="100%"/>
  </linearGradient><linearGradient gradientTransform="rotate(-30)" spreadMethod="pad" y2="30%" x2="-10%" y1="120%" x1="30%" id="3d_gradient3-logo-e40e42e0-dc8d-425b-95fb-59acee3e95f1">
    <stop id="stop205059" stop-opacity="1" stop-color="#ffffff" offset="0%"/>
    <stop id="stop205061" stop-opacity="1" stop-color="#cccccc" offset="50%"/>
    <stop id="stop205063" stop-opacity="1" stop-color="#000000" offset="100%"/>
  </linearGradient><g id="logo-group">
    <image id="container" x="272" y="144" width="480" height="480" style="display: none;" transform="translate(0 0)" xlink:href=""/>
    <g id="logo-center" transform="translate(0 0)">
      <image id="icon_container" style="display: none;" x="0" y="0" xlink:href=""/>
      <g id="slogan" style="font-style:normal;font-weight:100;font-size:32px;line-height:1;font-family:'Exo 2';font-variant-ligatures:none;text-align:center;text-anchor:middle" transform="translate(0 0)"/>
      <g id="title" style="font-style:normal;font-weight:normal;font-size:72px;line-height:1;font-family:'Brandmark Sans 25';font-variant-ligatures:normal;text-align:center;text-anchor:middle" transform="translate(0 0)">
        <path id="path205082" style="font-style:normal;font-weight:normal;font-size:72px;line-height:1;font-family:'Brandmark Sans 25';font-variant-ligatures:normal;text-align:center;text-anchor:middle" d="m 405.37475,-50.4 h -7.128 c -0.792,0 -1.512,0.648 -1.512,1.512 v 18.576 h -40.176 v -18.576 c 0,-0.864 -0.648,-1.512 -1.512,-1.512 h -7.128 c -0.792,0 -1.512,0.648 -1.512,1.512 v 47.376 c 0,0.792 0.72,1.512 1.512,1.512 h 7.128 c 0.864,0 1.512,-0.72 1.512,-1.512 v -18.576 h 40.176 v 18.576 c 0,0.792 0.72,1.512 1.512,1.512 h 7.128 c 0.864,0 1.584,-0.72 1.584,-1.512 v -47.376 c 0,-0.864 -0.72,-1.512 -1.584,-1.512 z" stroke-width="0" stroke-linejoin="miter" stroke-miterlimit="2" fill="#7590c6" stroke="#7590c6" transform="translate(0 328.96) translate(203.07039199999997 9.68) scale(1.8) translate(-346.40675 50.4)"/>
        <path id="path205084" style="font-style:normal;font-weight:normal;font-size:72px;line-height:1;font-family:'Brandmark Sans 25';font-variant-ligatures:normal;text-align:center;text-anchor:middle" d="m 473.56212,-50.4 h -57.96 c -0.79199,0 -1.512,0.648 -1.512,1.512 v 7.128 c 0,0.864 0.72001,1.512 1.512,1.512 h 23.904 v 38.736 c 0,0.792 0.64801,1.512 1.512,1.512 h 7.128 c 0.86401,0 1.512,-0.72 1.512,-1.512 v -38.736 h 23.904 c 0.792,0 1.512,-0.648 1.512,-1.512 v -7.128 c 0,-0.864 -0.72,-1.512 -1.512,-1.512 z" stroke-width="0" stroke-linejoin="miter" stroke-miterlimit="2" fill="#5c72a5" stroke="#5c72a5" transform="translate(0 328.96) translate(330.300458 9.68) scale(1.8) translate(-414.09012 50.4)"/>
        <path id="path205086" style="font-style:normal;font-weight:normal;font-size:72px;line-height:1;font-family:'Brandmark Sans 25';font-variant-ligatures:normal;text-align:center;text-anchor:middle" d="m 540.0665,-50.4 h -57.456 c -0.792,0 -1.512,0.648 -1.512,1.512 v 7.128 c 0,0.864 0.72,1.512 1.512,1.512 h 57.456 c 0.864,0 1.584,-0.648 1.584,-1.512 v -7.128 c 0,-0.864 -0.72,-1.512 -1.584,-1.512 z m -58.968,48.888 c 0,0.792 0.72,1.512 1.512,1.512 h 57.456 c 0.864,0 1.584,-0.72 1.584,-1.512 V -8.64 c 0,-0.864 -0.72,-1.512 -1.584,-1.512 h -48.816 v -9.936 h 38.664 c 0.864,0 1.512,-0.72 1.512,-1.584 v -7.056 c 0,-0.864 -0.648,-1.584 -1.512,-1.584 h -47.304 c -0.792,0 -1.512,0.72 -1.512,1.584 z" stroke-width="0" stroke-linejoin="miter" stroke-miterlimit="2" fill="#425483" stroke="#425483" transform="translate(0 328.96) translate(456.31554200000005 9.68) scale(1.8) translate(-481.0985 50.4)"/>
        <path id="path205088" style="font-style:normal;font-weight:normal;font-size:72px;line-height:1;font-family:'Brandmark Sans 25';font-variant-ligatures:normal;text-align:center;text-anchor:middle" d="m 567.76062,-40.248 h 38.88 c 0.86401,0 1.58401,-0.648 1.58401,-1.512 v -7.128 c 0,-0.792 -0.72,-1.512 -1.58401,-1.512 h -38.88 c -11.08799,0 -20.08799,9 -20.08799,20.088 v 10.224 c 0,11.088 9,20.088 20.08799,20.088 h 38.88 c 0.86401,0 1.58401,-0.72 1.58401,-1.512 V -8.64 c 0,-0.864 -0.72,-1.512 -1.58401,-1.512 h -38.88 c -5.47199,0 -9.936,-4.464 -9.936,-9.936 v -10.224 c 0,-5.472 4.46401,-9.936 9.936,-9.936 z" stroke-width="0" stroke-linejoin="miter" stroke-miterlimit="2" fill="#293562" stroke="#293562" transform="translate(0 328.96) translate(581.5489760000002 9.68) scale(1.8) translate(-547.67263 50.4)"/>
        <path id="path205090" style="font-style:normal;font-weight:normal;font-size:72px;line-height:1;font-family:'Brandmark Sans 25';font-variant-ligatures:normal;text-align:center;text-anchor:middle" d="m 676.07787,-50.4 h -7.12799 c -0.79201,0 -1.51201,0.648 -1.51201,1.512 v 18.576 h -40.17599 v -18.576 c 0,-0.864 -0.64801,-1.512 -1.51201,-1.512 h -7.12799 c -0.792,0 -1.51201,0.648 -1.51201,1.512 v 47.376 c 0,0.792 0.72001,1.512 1.51201,1.512 h 7.12799 c 0.864,0 1.51201,-0.72 1.51201,-1.512 v -18.576 h 40.17599 v 18.576 c 0,0.792 0.72,1.512 1.51201,1.512 h 7.12799 c 0.864,0 1.584,-0.72 1.584,-1.512 v -47.376 c 0,-0.864 -0.72,-1.512 -1.584,-1.512 z" stroke-width="0" stroke-linejoin="miter" stroke-miterlimit="2" fill="#0f1740" stroke="#0f1740" transform="translate(0 328.96) translate(711.9360080000001 9.68) scale(1.8) translate(-617.10987 50.4)"/>
      </g>
      <image id="icon" style="display: none;" x="0" y="0" xlink:href=""/>
    </g>
  </g></g></svg>